<svg width="53" height="45" viewBox="0 0 53 45" fill="none" xmlns="http://www.w3.org/2000/svg">
<path d="M1.00002 0.75H0.750024V1V27.4118H0.75V27.6618V43V43.5425L1.16241 43.1901L19.1116 27.8518L19.6266 27.4118H18.9492H8.80216V8.10963H18.9492H19.1992V7.85963V1V0.75H18.9492H1.00002ZM51.5348 34.7714H51.7848V34.5214V1.00003V0.75003H51.5348H43.9826H43.7326V1.00003V27.4118H33.5856H33.3356V27.6618V34.5214V34.7714H33.5856H51.5348Z" fill="#1D4ED8"/>
<path d="M1.00002 0.75H0.750024V1V27.4118H0.75V27.6618V43V43.5425L1.16241 43.1901L19.1116 27.8518L19.6266 27.4118H18.9492H8.80216V8.10963H18.9492H19.1992V7.85963V1V0.75H18.9492H1.00002ZM51.5348 34.7714H51.7848V34.5214V1.00003V0.75003H51.5348H43.9826H43.7326V1.00003V27.4118H33.5856H33.3356V27.6618V34.5214V34.7714H33.5856H51.5348Z" fill="url(#paint0_linear_1603_49)" fill-opacity="0.32"/>
<path d="M1.00002 0.75H0.750024V1V27.4118H0.75V27.6618V43V43.5425L1.16241 43.1901L19.1116 27.8518L19.6266 27.4118H18.9492H8.80216V8.10963H18.9492H19.1992V7.85963V1V0.75H18.9492H1.00002ZM51.5348 34.7714H51.7848V34.5214V1.00003V0.75003H51.5348H43.9826H43.7326V1.00003V27.4118H33.5856H33.3356V27.6618V34.5214V34.7714H33.5856H51.5348Z" stroke="#494949" stroke-width="0.5"/>
<defs>
<linearGradient id="paint0_linear_1603_49" x1="9.9746" y1="-20" x2="9.9746" y2="35.1486" gradientUnits="userSpaceOnUse">
<stop stop-opacity="0"/>
<stop offset="1" stop-color="white"/>
</linearGradient>
</defs>
</svg>
