<svg width="174" height="34" viewBox="0 0 174 34" fill="none" xmlns="http://www.w3.org/2000/svg">
<path d="M51.8831 26.2969V1.42312H61.4872C62.8805 1.42312 64.0954 1.71101 65.1319 2.2868C66.1683 2.86258 66.9744 3.63988 67.5501 4.61871C68.1259 5.58602 68.4138 6.65698 68.4138 7.83157C68.4138 9.16738 68.0568 10.3592 67.3429 11.4072C66.6289 12.4436 65.6731 13.1633 64.4755 13.5664L64.4409 12.72C66.0531 13.1806 67.3198 13.9867 68.2411 15.1382C69.1623 16.2898 69.6229 17.6832 69.6229 19.3184C69.6229 20.7579 69.3178 22.0015 68.7075 23.0495C68.0971 24.0859 67.2392 24.8862 66.1337 25.4505C65.0282 26.0147 63.7442 26.2969 62.2817 26.2969H51.8831ZM54.4396 23.8613H61.6599C62.6733 23.8613 63.583 23.6828 64.3891 23.3258C65.1952 22.9573 65.8285 22.4391 66.2892 21.7712C66.7613 21.1033 66.9974 20.2972 66.9974 19.353C66.9974 18.4317 66.7843 17.6026 66.3583 16.8656C65.9322 16.1286 65.3506 15.5413 64.6136 15.1037C63.8882 14.6546 63.059 14.43 62.1263 14.43H54.4396V23.8613ZM54.4396 12.029H61.4699C62.2645 12.029 62.9899 11.8505 63.6463 11.4935C64.3027 11.125 64.8209 10.6241 65.2009 9.99075C65.5925 9.35739 65.7882 8.62615 65.7882 7.79702C65.7882 6.62243 65.3794 5.66663 64.5618 4.92963C63.7557 4.19263 62.7251 3.82413 61.4699 3.82413H54.4396V12.029ZM80.1789 26.8151C78.3594 26.8151 76.7818 26.412 75.446 25.6059C74.1217 24.7998 73.091 23.6656 72.354 22.2031C71.617 20.7406 71.2485 19.0248 71.2485 17.0556C71.2485 15.0173 71.6113 13.2554 72.3367 11.7699C73.0622 10.2844 74.0814 9.13859 75.3941 8.3325C76.7184 7.52641 78.2788 7.12336 80.0752 7.12336C81.9177 7.12336 83.4896 7.54944 84.7909 8.40159C86.0922 9.24223 87.0767 10.4514 87.7446 12.029C88.4126 13.6067 88.7177 15.4895 88.6601 17.6774H86.0691V16.7792C86.0231 14.3609 85.4991 12.5357 84.4972 11.3035C83.5069 10.0714 82.0559 9.45527 80.1443 9.45527C78.1406 9.45527 76.6033 10.1059 75.5323 11.4072C74.4729 12.7084 73.9432 14.5625 73.9432 16.9692C73.9432 19.3184 74.4729 21.1436 75.5323 22.4449C76.6033 23.7346 78.1176 24.3795 80.0752 24.3795C81.4111 24.3795 82.5741 24.0744 83.5645 23.464C84.5663 22.8422 85.3552 21.9497 85.9309 20.7866L88.2974 21.7021C87.5604 23.3258 86.4722 24.5868 85.0327 25.485C83.6048 26.3717 81.9868 26.8151 80.1789 26.8151ZM73.045 17.6774V15.5528H87.2955V17.6774H73.045ZM92.0538 26.2969V0.904921H94.593V26.2969H92.0538ZM106.725 26.8151C104.848 26.8151 103.259 26.3948 101.957 25.5541C100.656 24.7135 99.6658 23.5562 98.9864 22.0822C98.3185 20.5966 97.973 18.8923 97.95 16.9692C97.973 15.0116 98.33 13.2957 99.0209 11.8217C99.7119 10.3362 100.708 9.18465 102.009 8.36705C103.31 7.53792 104.888 7.12336 106.742 7.12336C108.631 7.12336 110.272 7.58398 111.665 8.50523C113.07 9.42648 114.032 10.6874 114.55 12.2881L112.062 13.0827C111.625 11.9657 110.928 11.102 109.972 10.4917C109.028 9.86984 107.946 9.55891 106.725 9.55891C105.355 9.55891 104.22 9.87559 103.322 10.509C102.424 11.1308 101.756 12.0002 101.318 13.1172C100.881 14.2343 100.656 15.5182 100.645 16.9692C100.668 19.2032 101.186 20.9997 102.199 22.3585C103.213 23.7059 104.721 24.3795 106.725 24.3795C107.992 24.3795 109.068 24.0916 109.955 23.5159C110.853 22.9286 111.533 22.0764 111.993 20.9594L114.55 21.7194C113.859 23.3777 112.845 24.6444 111.51 25.5196C110.174 26.3832 108.579 26.8151 106.725 26.8151ZM124.614 26.8151C122.76 26.8151 121.177 26.3948 119.864 25.5541C118.551 24.7135 117.544 23.5504 116.841 22.0649C116.139 20.5794 115.788 18.8751 115.788 16.9519C115.788 14.9943 116.145 13.2785 116.859 11.8045C117.573 10.3305 118.586 9.18465 119.899 8.36705C121.223 7.53792 122.795 7.12336 124.614 7.12336C126.48 7.12336 128.069 7.54368 129.382 8.38432C130.706 9.21344 131.714 10.3708 132.405 11.8563C133.107 13.3303 133.458 15.0288 133.458 16.9519C133.458 18.9096 133.107 20.6312 132.405 22.1167C131.702 23.5907 130.689 24.7423 129.365 25.5714C128.04 26.4005 126.457 26.8151 124.614 26.8151ZM124.614 24.3795C126.687 24.3795 128.23 23.6943 129.244 22.324C130.257 20.9421 130.764 19.1514 130.764 16.9519C130.764 14.6949 130.251 12.8984 129.226 11.5626C128.213 10.2268 126.676 9.55891 124.614 9.55891C123.221 9.55891 122.07 9.87559 121.16 10.509C120.262 11.1308 119.588 12.0002 119.139 13.1172C118.701 14.2227 118.482 15.501 118.482 16.9519C118.482 19.1975 119.001 20.9997 120.037 22.3585C121.073 23.7059 122.599 24.3795 124.614 24.3795ZM143.721 26.8151C141.982 26.8151 140.497 26.3832 139.265 25.5196C138.033 24.6444 137.088 23.464 136.432 21.9785C135.776 20.493 135.447 18.8175 135.447 16.9519C135.447 15.0979 135.77 13.4282 136.415 11.9426C137.071 10.4571 138.01 9.28254 139.23 8.41887C140.451 7.55519 141.913 7.12336 143.618 7.12336C145.368 7.12336 146.842 7.54944 148.04 8.40159C149.237 9.25375 150.141 10.4226 150.752 11.9081C151.373 13.3821 151.684 15.0634 151.684 16.9519C151.684 18.806 151.379 20.4815 150.769 21.9785C150.159 23.464 149.26 24.6444 148.074 25.5196C146.888 26.3832 145.437 26.8151 143.721 26.8151ZM143.98 24.4486C145.305 24.4486 146.399 24.1262 147.262 23.4813C148.126 22.8364 148.771 21.9497 149.197 20.8212C149.623 19.6811 149.836 18.3914 149.836 16.9519C149.836 15.4895 149.623 14.1997 149.197 13.0827C148.771 11.9542 148.126 11.0732 147.262 10.4399C146.41 9.8065 145.333 9.48982 144.032 9.48982C142.696 9.48982 141.591 9.81801 140.716 10.4744C139.841 11.1308 139.19 12.0233 138.764 13.1518C138.349 14.2803 138.142 15.547 138.142 16.9519C138.142 18.3684 138.355 19.6466 138.781 20.7866C139.219 21.9152 139.869 22.8076 140.733 23.464C141.597 24.1204 142.679 24.4486 143.98 24.4486ZM149.836 26.2969V12.2536H149.56V1.42312H152.116V26.2969H149.836ZM161.515 26.8151C160.11 26.8151 158.929 26.5617 157.973 26.055C157.029 25.5484 156.321 24.8747 155.849 24.0341C155.377 23.1934 155.141 22.2779 155.141 21.2876C155.141 20.2742 155.342 19.4105 155.745 18.6966C156.16 17.9711 156.718 17.378 157.421 16.9174C158.135 16.4568 158.958 16.1055 159.891 15.8637C160.835 15.6334 161.877 15.4319 163.017 15.2591C164.169 15.0749 165.292 14.9194 166.386 14.7928C167.491 14.6546 168.458 14.5221 169.288 14.3955L168.389 14.9482C168.424 13.1057 168.067 11.7411 167.318 10.8544C166.57 9.96772 165.269 9.52437 163.415 9.52437C162.136 9.52437 161.054 9.81226 160.167 10.388C159.292 10.9638 158.676 11.8736 158.319 13.1172L155.849 12.3918C156.275 10.722 157.133 9.42648 158.423 8.50523C159.712 7.58398 161.388 7.12336 163.449 7.12336C165.153 7.12336 166.599 7.4458 167.785 8.09067C168.982 8.72403 169.829 9.64528 170.324 10.8544C170.554 11.3957 170.704 12.0002 170.773 12.6681C170.842 13.336 170.877 14.0155 170.877 14.7064V26.2969H168.614V21.6158L169.27 21.8921C168.637 23.4928 167.652 24.7135 166.317 25.5541C164.981 26.3948 163.38 26.8151 161.515 26.8151ZM161.808 24.6214C162.994 24.6214 164.031 24.4083 164.917 23.9822C165.804 23.5562 166.518 22.9746 167.059 22.2376C167.601 21.4891 167.952 20.6485 168.113 19.7157C168.251 19.1169 168.326 18.4605 168.338 17.7465C168.349 17.021 168.355 16.4798 168.355 16.1228L169.322 16.6237C168.458 16.7389 167.52 16.8541 166.507 16.9692C165.505 17.0844 164.514 17.2168 163.536 17.3665C162.568 17.5162 161.693 17.6947 160.91 17.902C160.38 18.0517 159.868 18.2647 159.373 18.5411C158.877 18.806 158.469 19.1629 158.146 19.6121C157.835 20.0612 157.68 20.6197 157.68 21.2876C157.68 21.8288 157.812 22.3528 158.077 22.8595C158.353 23.3661 158.791 23.7865 159.39 24.1204C160 24.4544 160.806 24.6214 161.808 24.6214Z" fill="black"/>
<rect y="0.511719" width="6.28125" height="21.9844" fill="#1D4ED8"/>
<path d="M0 20.9258H14.1328L0 33.4883V20.9258Z" fill="#1D4ED8"/>
<rect x="14.1328" y="0.511719" width="6.28125" height="14.1328" transform="rotate(90 14.1328 0.511719)" fill="#1D4ED8"/>
<rect x="32.9766" y="0.511719" width="6.28125" height="21.9844" fill="#1D4ED8"/>
<rect x="39.2578" y="20.9258" width="6.28125" height="14.1328" transform="rotate(90 39.2578 20.9258)" fill="#1D4ED8"/>
</svg>
