<svg width="174" height="33" viewBox="0 0 174 33" fill="none" xmlns="http://www.w3.org/2000/svg">
<path d="M51.8831 25.7852V0.911405H61.4872C62.8805 0.911405 64.0954 1.1993 65.1319 1.77508C66.1683 2.35086 66.9744 3.12816 67.5501 4.10699C68.1259 5.0743 68.4138 6.14526 68.4138 7.31985C68.4138 8.65566 68.0568 9.84753 67.3429 10.8955C66.6289 11.9319 65.6731 12.6516 64.4755 13.0546L64.4409 12.2082C66.0531 12.6689 67.3198 13.475 68.2411 14.6265C69.1623 15.7781 69.6229 17.1715 69.6229 18.8067C69.6229 20.2461 69.3178 21.4898 68.7075 22.5377C68.0971 23.5742 67.2392 24.3745 66.1337 24.9388C65.0282 25.503 63.7442 25.7852 62.2817 25.7852H51.8831ZM54.4396 23.3496H61.6599C62.6733 23.3496 63.583 23.1711 64.3891 22.8141C65.1952 22.4456 65.8285 21.9274 66.2892 21.2595C66.7613 20.5916 66.9974 19.7855 66.9974 18.8412C66.9974 17.92 66.7843 17.0909 66.3583 16.3539C65.9322 15.6169 65.3506 15.0296 64.6136 14.592C63.8882 14.1429 63.059 13.9183 62.1263 13.9183H54.4396V23.3496ZM54.4396 11.5173H61.4699C62.2645 11.5173 62.9899 11.3388 63.6463 10.9818C64.3027 10.6133 64.8209 10.1124 65.2009 9.47903C65.5925 8.84567 65.7882 8.11443 65.7882 7.2853C65.7882 6.11071 65.3794 5.15491 64.5618 4.41791C63.7557 3.68091 62.7251 3.31241 61.4699 3.31241H54.4396V11.5173ZM80.1789 26.3034C78.3594 26.3034 76.7818 25.9003 75.446 25.0942C74.1217 24.2881 73.091 23.1538 72.354 21.6914C71.617 20.2289 71.2485 18.513 71.2485 16.5439C71.2485 14.5056 71.6113 12.7437 72.3367 11.2582C73.0622 9.77268 74.0814 8.62687 75.3941 7.82078C76.7184 7.01469 78.2788 6.61164 80.0752 6.61164C81.9177 6.61164 83.4896 7.03772 84.7909 7.88987C86.0922 8.73051 87.0767 9.93966 87.7446 11.5173C88.4126 13.0949 88.7177 14.9777 88.6601 17.1657H86.0691V16.2675C86.0231 13.8492 85.4991 12.024 84.4972 10.7918C83.5069 9.55964 82.0559 8.94355 80.1443 8.94355C78.1406 8.94355 76.6033 9.59419 75.5323 10.8955C74.4729 12.1967 73.9432 14.0507 73.9432 16.4575C73.9432 18.8067 74.4729 20.6319 75.5323 21.9332C76.6033 23.2229 78.1176 23.8678 80.0752 23.8678C81.4111 23.8678 82.5741 23.5626 83.5645 22.9523C84.5663 22.3305 85.3552 21.438 85.9309 20.2749L88.2974 21.1904C87.5604 22.8141 86.4722 24.0751 85.0327 24.9733C83.6048 25.86 81.9868 26.3034 80.1789 26.3034ZM73.045 17.1657V15.0411H87.2955V17.1657H73.045ZM92.0538 25.7852V0.393203H94.593V25.7852H92.0538ZM106.725 26.3034C104.848 26.3034 103.259 25.883 101.957 25.0424C100.656 24.2018 99.6658 23.0444 98.9864 21.5704C98.3185 20.0849 97.973 18.3806 97.95 16.4575C97.973 14.4998 98.33 12.784 99.0209 11.31C99.7119 9.8245 100.708 8.67294 102.009 7.85533C103.31 7.0262 104.888 6.61164 106.742 6.61164C108.631 6.61164 110.272 7.07226 111.665 7.99351C113.07 8.91476 114.032 10.1757 114.55 11.7764L112.062 12.571C111.625 11.454 110.928 10.5903 109.972 9.97996C109.028 9.35812 107.946 9.04719 106.725 9.04719C105.355 9.04719 104.22 9.36387 103.322 9.99723C102.424 10.6191 101.756 11.4885 101.318 12.6055C100.881 13.7225 100.656 15.0065 100.645 16.4575C100.668 18.6915 101.186 20.488 102.199 21.8468C103.213 23.1941 104.721 23.8678 106.725 23.8678C107.992 23.8678 109.068 23.5799 109.955 23.0041C110.853 22.4168 111.533 21.5647 111.993 20.4477L114.55 21.2077C113.859 22.8659 112.845 24.1327 111.51 25.0079C110.174 25.8715 108.579 26.3034 106.725 26.3034ZM124.614 26.3034C122.76 26.3034 121.177 25.883 119.864 25.0424C118.551 24.2018 117.544 23.0387 116.841 21.5532C116.139 20.0676 115.788 18.3633 115.788 16.4402C115.788 14.4826 116.145 12.7667 116.859 11.2927C117.573 9.81874 118.586 8.67294 119.899 7.85533C121.223 7.0262 122.795 6.61164 124.614 6.61164C126.48 6.61164 128.069 7.03196 129.382 7.8726C130.706 8.70173 131.714 9.85905 132.405 11.3446C133.107 12.8186 133.458 14.5171 133.458 16.4402C133.458 18.3979 133.107 20.1195 132.405 21.605C131.702 23.079 130.689 24.2305 129.365 25.0597C128.04 25.8888 126.457 26.3034 124.614 26.3034ZM124.614 23.8678C126.687 23.8678 128.23 23.1826 129.244 21.8123C130.257 20.4304 130.764 18.6397 130.764 16.4402C130.764 14.1832 130.251 12.3867 129.226 11.0509C128.213 9.7151 126.676 9.04719 124.614 9.04719C123.221 9.04719 122.07 9.36387 121.16 9.99723C120.262 10.6191 119.588 11.4885 119.139 12.6055C118.701 13.711 118.482 14.9893 118.482 16.4402C118.482 18.6858 119.001 20.488 120.037 21.8468C121.073 23.1941 122.599 23.8678 124.614 23.8678ZM143.721 26.3034C141.982 26.3034 140.497 25.8715 139.265 25.0079C138.033 24.1327 137.088 22.9523 136.432 21.4668C135.776 19.9813 135.447 18.3058 135.447 16.4402C135.447 14.5862 135.77 12.9164 136.415 11.4309C137.071 9.94541 138.01 8.77082 139.23 7.90715C140.451 7.04348 141.913 6.61164 143.618 6.61164C145.368 6.61164 146.842 7.03772 148.04 7.88987C149.237 8.74203 150.141 9.91087 150.752 11.3964C151.373 12.8704 151.684 14.5517 151.684 16.4402C151.684 18.2942 151.379 19.9698 150.769 21.4668C150.159 22.9523 149.26 24.1327 148.074 25.0079C146.888 25.8715 145.437 26.3034 143.721 26.3034ZM143.98 23.9369C145.305 23.9369 146.399 23.6145 147.262 22.9696C148.126 22.3247 148.771 21.438 149.197 20.3095C149.623 19.1694 149.836 17.8797 149.836 16.4402C149.836 14.9777 149.623 13.688 149.197 12.571C148.771 11.4424 148.126 10.5615 147.262 9.92814C146.41 9.29478 145.333 8.9781 144.032 8.9781C142.696 8.9781 141.591 9.3063 140.716 9.96269C139.841 10.6191 139.19 11.5115 138.764 12.6401C138.349 13.7686 138.142 15.0353 138.142 16.4402C138.142 17.8566 138.355 19.1349 138.781 20.2749C139.219 21.4035 139.869 22.2959 140.733 22.9523C141.597 23.6087 142.679 23.9369 143.98 23.9369ZM149.836 25.7852V11.7419H149.56V0.911405H152.116V25.7852H149.836ZM161.515 26.3034C160.11 26.3034 158.929 26.05 157.973 25.5433C157.029 25.0366 156.321 24.363 155.849 23.5223C155.377 22.6817 155.141 21.7662 155.141 20.7759C155.141 19.7625 155.342 18.8988 155.745 18.1848C156.16 17.4594 156.718 16.8663 157.421 16.4057C158.135 15.9451 158.958 15.5938 159.891 15.352C160.835 15.1217 161.877 14.9202 163.017 14.7474C164.169 14.5632 165.292 14.4077 166.386 14.281C167.491 14.1429 168.458 14.0104 169.288 13.8838L168.389 14.4365C168.424 12.594 168.067 11.2294 167.318 10.3427C166.57 9.456 165.269 9.01265 163.415 9.01265C162.136 9.01265 161.054 9.30054 160.167 9.87632C159.292 10.4521 158.676 11.3618 158.319 12.6055L155.849 11.88C156.275 10.2103 157.133 8.91476 158.423 7.99351C159.712 7.07226 161.388 6.61164 163.449 6.61164C165.153 6.61164 166.599 6.93408 167.785 7.57895C168.982 8.21231 169.829 9.13356 170.324 10.3427C170.554 10.8839 170.704 11.4885 170.773 12.1564C170.842 12.8243 170.877 13.5037 170.877 14.1947V25.7852H168.614V21.1041L169.27 21.3804C168.637 22.9811 167.652 24.2018 166.317 25.0424C164.981 25.883 163.38 26.3034 161.515 26.3034ZM161.808 24.1096C162.994 24.1096 164.031 23.8966 164.917 23.4705C165.804 23.0444 166.518 22.4629 167.059 21.7259C167.601 20.9774 167.952 20.1367 168.113 19.204C168.251 18.6052 168.326 17.9488 168.338 17.2348C168.349 16.5093 168.355 15.9681 168.355 15.6111L169.322 16.112C168.458 16.2272 167.52 16.3423 166.507 16.4575C165.505 16.5727 164.514 16.7051 163.536 16.8548C162.568 17.0045 161.693 17.183 160.91 17.3903C160.38 17.54 159.868 17.753 159.373 18.0294C158.877 18.2942 158.469 18.6512 158.146 19.1003C157.835 19.5494 157.68 20.108 157.68 20.7759C157.68 21.3171 157.812 21.8411 158.077 22.3477C158.353 22.8544 158.791 23.2747 159.39 23.6087C160 23.9427 160.806 24.1096 161.808 24.1096Z" fill="white"/>
<rect width="6.28125" height="21.9844" fill="white"/>
<path d="M0 20.4141H14.1328L0 32.9766V20.4141Z" fill="white"/>
<rect x="14.1328" width="6.28125" height="14.1328" transform="rotate(90 14.1328 0)" fill="white"/>
<rect x="32.9766" width="6.28125" height="21.9844" fill="white"/>
<rect x="39.2578" y="20.4141" width="6.28125" height="14.1328" transform="rotate(90 39.2578 20.4141)" fill="white"/>
</svg>
